{"title":"Dark.Matter.S01E02.1080p.WEB-DL.DD5.1.H.264-RARBG","uid":12041669,"size":1708582476,"categoryP":"video","categoryS":"hd___tv_shows","magnet":"?xt=urn:btih:e5152bb51a24260bdf2a8793eb27d09f92700daa&amp;dn=Dark.Matter.S01E02.1080p.WEB-DL.DD5.1.H.264-RARBG&amp;tr=udp%3A%2F%2Ftracker.openbittorrent.com%3A80&amp;tr=udp%3A%2F%2Fopen.demonii.com%3A1337&amp;tr=udp%3A%2F%2Ftracker.coppersurfer.tk%3A6969&amp;tr=udp%3A%2F%2Fexodus.desync.com%3A6969","seeders":0,"leechers":1,"uploader":"frostyon420","files":3,"time":1434799666,"description":"\n\n\nVideo\nID                          : 1\nFormat                      : AVC\nFormat/Info                 : Advanced Video Codec\nFormat profile              : &lt;a class=&quot;__cf_email__&quot; href=&quot;/cdn-cgi/l/email-protection&quot; data-cfemail=&quot;7e361719163e324a504e&quot;&gt;[email&amp;#160;protected]&lt;/a&gt;&lt;script data-cfhash='f9e31' type=&quot;text/javascript&quot;&gt;\n/* &lt;![CDATA[ */!function(){try{var t=&quot;currentScript&quot;in document?document.currentScript:function(){for(var t=document.getElementsByTagName(&quot;script&quot;),e=t.length;e--;)if(t[e].getAttribute(&quot;data-cfhash&quot;))return t[e]}();if(t&amp;&amp;t.previousSibling){var e,r,n,i,c=t.previousSibling,a=c.getAttribute(&quot;data-cfemail&quot;);if(a){for(e=&quot;&quot;,r=parseInt(a.substr(0,2),16),n=2;a.length-n;n+=2)i=parseInt(a.substr(n,2),16)^r,e+=String.fromCharCode(i);e=document.createTextNode(e),c.parentNode.replaceChild(e,c)}t.parentNode.removeChild(t);}}catch(u){}}()/* ]]&gt; */&lt;/script&gt;\nFormat settings, CABAC      : Yes\nFormat settings, ReFrames   : 4 frames\nCodec ID                    : V_MPEG4/ISO/AVC\nDuration                    : 43mn 4s\nBit rate                    : 4 800 Kbps\nWidth                       : 1 920 pixels\nHeight                      : 1 080 pixels\nDisplay aspect ratio        : 16:9\nFrame rate mode             : Constant\nFrame rate                  : 23.976 fps\nColor space                 : YUV\nChroma subsampling          : 4:2:0\nBit depth                   : 8 bits\nScan type                   : Progressive\nBits/(Pixel*Frame)          : 0.097\nStream size                 : 1.44 GiB (91%)\nTitle                       : Dark.Matter.S01E02.1080p.WEB-DL.DD5.1.H.264-RARBG\nLanguage                    : English\nDefault                     : Yes\nForced                      : No\nColor primaries             : BT.709\nTransfer characteristics    : BT.709\nMatrix coefficients         : BT.709\nColor range                 : Limited\n\nAudio\nID                          : 2\nFormat                      : AC-3\nFormat/Info                 : Audio Coding 3\nMode extension              : CM (complete main)\nFormat settings, Endianness : Big\nCodec ID                    : A_AC3\nDuration                    : 43mn 4s\nBit rate mode               : Constant\nBit rate                    : 384 Kbps\nChannel(s)                  : 6 channels\nChannel positions           : Front: L C R, Side: L R, LFE\nSampling rate               : 48.0 KHz\nBit depth                   : 16 bits\nCompression mode            : Lossy\nStream size                 : 118 MiB (7%)\nTitle                       : Dark.Matter.S01E02.1080p.WEB-DL.DD5.1.H.264-RARBG\nLanguage                    : English\nDefault                     : Yes\nForced                      : No\n\nText\nID                          : 3\nFormat                      : UTF-8\nCodec ID                    : S_TEXT/UTF8\nCodec ID/Info               : UTF-8 Plain Text\nTitle                       : English\nLanguage                    : English\nDefault                     : No\nForced                      : No\n\nPhr0stY-Duz-It","torrent":{"xt":"urn:btih:e5152bb51a24260bdf2a8793eb27d09f92700daa","amp;dn":"Dark.Matter.S01E02.1080p.WEB-DL.DD5.1.H.264-RARBG","amp;tr":["udp%3A%2F%2Ftracker.openbittorrent.com%3A80","udp%3A%2F%2Fopen.demonii.com%3A1337","udp%3A%2F%2Ftracker.coppersurfer.tk%3A6969","udp%3A%2F%2Fexodus.desync.com%3A6969"],"infoHash":"e5152bb51a24260bdf2a8793eb27d09f92700daa","infoHashBuffer":{"type":"Buffer","data":[229,21,43,181,26,36,38,11,223,42,135,147,235,39,208,159,146,112,13,170]},"announce":[],"urlList":[]}}